<?xml version="1.0" standalone="no"?>
<!DOCTYPE svg PUBLIC "-//W3C//DTD SVG 20010904//EN"
 "http://www.w3.org/TR/2001/REC-SVG-20010904/DTD/svg10.dtd">
<svg version="1.0" xmlns="http://www.w3.org/2000/svg"
 width="1041.000000pt" height="376.000000pt" viewBox="0 0 1041.000000 376.000000"
 preserveAspectRatio="xMidYMid meet">
<metadata>
Created by potrace 1.14, written by Peter Selinger 2001-2017
</metadata>
<g transform="translate(0.000000,376.000000) scale(0.100000,-0.100000)"
fill="#000000" stroke="none">
<path d="M1500 3160 c-69 -10 -190 -48 -190 -60 0 -5 5 -12 10 -15 6 -3 10 -1
10 5 0 7 12 3 28 -8 27 -18 49 -29 65 -30 5 0 16 -9 25 -19 15 -16 29 -21 69
-25 6 -1 9 -7 6 -15 -4 -9 0 -11 13 -6 14 5 16 3 11 -11 -5 -12 -3 -16 5 -13
7 2 13 11 13 20 0 8 4 19 8 23 4 4 7 2 7 -4 0 -7 8 -12 18 -12 11 0 -4 -20
-45 -58 -35 -32 -63 -61 -63 -65 0 -3 21 3 46 13 97 42 229 16 327 -64 29 -23
85 -85 126 -137 41 -51 78 -93 83 -91 5 1 7 -2 3 -8 -4 -6 5 -24 19 -41 14
-17 26 -26 26 -20 0 6 -9 20 -20 31 -11 11 -15 22 -9 25 5 4 7 10 4 15 -3 4 2
13 11 20 12 11 12 15 2 23 -9 6 -8 7 5 3 11 -3 34 6 59 24 22 17 48 30 57 30
14 0 14 2 1 10 -12 8 -11 10 8 11 12 1 25 2 30 3 12 2 65 39 85 59 10 10 25
16 33 13 8 -3 14 0 14 6 0 6 3 8 7 5 3 -4 12 1 19 11 7 9 14 12 14 5 0 -6 8
-10 17 -9 18 3 60 -41 55 -57 -1 -5 2 -6 8 -2 27 17 -159 194 -277 264 -89 53
-187 92 -209 84 -11 -4 -15 -3 -11 5 7 10 -12 17 -145 52 -26 7 -63 10 -82 8
-19 -2 -32 0 -30 4 6 10 -191 8 -266 -2z"/>
<path d="M4228 2480 c-45 -24 -56 -40 -34 -52 11 -6 16 -23 16 -58 0 -27 5
-52 10 -55 6 -4 7 -12 3 -18 -5 -7 -9 -113 -10 -237 -2 -258 -8 -380 -22 -441
-15 -66 -4 -72 74 -39 l47 20 -7 123 c-4 67 -9 125 -11 129 -3 5 -2 14 3 20 8
14 11 168 3 168 -5 0 -5 51 4 298 l6 162 -23 0 c-12 -1 -39 -10 -59 -20z"/>
<path d="M5589 2482 c-46 -8 -163 -61 -199 -91 -10 -9 -37 -31 -59 -49 -23
-19 -41 -38 -41 -42 0 -5 -10 -20 -22 -33 -29 -32 -90 -153 -93 -186 -1 -14
-6 -34 -10 -44 -10 -25 0 -180 12 -184 6 -2 8 -14 6 -26 -3 -13 6 -37 19 -57
13 -19 29 -47 37 -62 8 -16 22 -28 32 -28 10 0 21 -9 24 -20 8 -25 68 -65 113
-75 17 -3 32 -10 32 -15 0 -5 28 -11 63 -15 89 -10 213 22 337 86 146 74 238
174 275 295 15 51 20 116 8 127 -3 4 -7 41 -8 82 -1 41 -7 80 -12 87 -6 7 -13
25 -17 40 -3 15 -16 36 -27 47 -12 11 -27 30 -33 43 -15 30 -105 83 -174 103
-62 19 -196 27 -263 17z m183 -69 c7 -6 24 -14 38 -18 14 -4 48 -26 77 -49 63
-50 103 -122 128 -228 11 -51 22 -78 31 -78 19 0 18 -15 -2 -35 -9 -9 -14 -18
-11 -22 9 -9 -38 -130 -67 -171 -31 -46 -100 -104 -143 -121 -18 -7 -33 -19
-33 -25 0 -6 -35 -22 -77 -35 -60 -18 -90 -22 -131 -17 -56 7 -131 39 -145 62
-4 8 -15 14 -22 14 -8 0 -15 6 -15 13 0 14 -52 57 -70 57 -5 0 -10 6 -10 14 0
7 -11 34 -25 60 -14 26 -25 56 -25 66 0 10 -4 22 -10 25 -18 11 -11 142 10
206 23 68 40 97 84 149 37 44 141 123 181 138 36 14 218 10 237 -5z"/>
<path d="M6765 2483 c-69 -12 -166 -38 -199 -54 -22 -11 -43 -19 -48 -19 -21
0 -168 -119 -168 -137 0 -7 -6 -13 -12 -13 -17 0 -91 -116 -83 -130 3 -5 2
-10 -3 -10 -16 0 -30 -80 -31 -175 -1 -98 18 -179 50 -207 10 -9 19 -23 19
-31 0 -23 94 -111 138 -129 40 -16 252 -12 367 6 55 9 136 21 180 27 112 14
125 22 125 76 0 24 -4 43 -10 43 -5 0 -7 7 -4 15 4 8 0 22 -7 31 -10 13 -10
17 2 26 10 7 11 11 2 14 -8 4 -9 13 -2 33 6 16 9 57 7 92 l-3 64 -104 3 c-99
3 -131 -5 -131 -29 0 -5 25 -9 56 -9 48 0 60 -4 80 -25 13 -14 19 -25 14 -25
-6 0 -10 -32 -10 -72 0 -54 4 -76 17 -91 17 -18 17 -19 -2 -33 -16 -12 -17
-16 -6 -23 12 -8 12 -11 -1 -24 -20 -20 -235 -56 -363 -60 -98 -3 -101 -2
-150 29 -58 37 -100 80 -110 112 -3 12 -10 22 -15 22 -4 0 -11 18 -15 40 -4
22 -10 40 -14 40 -5 0 -6 11 -3 25 2 14 0 25 -6 25 -18 0 10 168 38 235 25 59
133 181 190 214 121 71 206 90 325 71 74 -12 84 -11 108 5 15 9 27 21 27 26 0
13 -195 30 -245 22z"/>
<path d="M7288 2464 c-51 -25 -57 -34 -33 -54 8 -7 14 -26 14 -44 -1 -17 2
-53 6 -81 3 -27 6 -68 5 -90 -3 -44 -3 -117 0 -125 0 -3 1 -54 1 -115 0 -155
-12 -323 -27 -377 -4 -14 1 -18 20 -18 14 0 26 4 26 8 0 4 15 12 33 17 l32 10
2 284 c1 156 4 285 5 286 3 3 200 12 433 21 l140 5 -2 -210 c-1 -130 2 -213 8
-217 6 -4 5 -11 -2 -21 -10 -11 -10 -16 0 -23 11 -6 10 -9 -2 -16 -9 -6 -17
-32 -22 -71 -6 -57 -5 -63 12 -63 25 0 103 43 103 57 0 6 -9 15 -20 18 -24 8
-26 21 -5 29 18 7 20 46 3 46 -10 0 -10 2 -1 8 16 10 18 652 1 652 -7 0 -7 4
-1 13 6 6 13 31 17 55 6 40 5 42 -19 42 -14 0 -44 -9 -65 -20 -33 -17 -38 -23
-30 -38 12 -21 30 -175 21 -184 -8 -8 -205 -22 -331 -23 -52 0 -106 -4 -119
-9 -15 -5 -26 -4 -30 3 -4 6 -27 15 -51 19 l-43 7 2 73 c2 60 0 72 -13 72 -15
0 -15 3 -1 36 29 71 14 79 -67 38z"/>
<path d="M4503 2459 c-42 -19 -52 -32 -34 -43 20 -12 33 -192 33 -428 0 -97
-3 -191 -7 -208 -5 -23 -2 -37 11 -51 15 -17 16 -22 4 -29 -11 -7 -11 -12 -2
-23 9 -11 8 -18 -8 -32 -11 -10 -20 -24 -20 -32 0 -7 -7 -16 -15 -19 -8 -4
-15 -12 -15 -19 0 -11 61 -13 307 -13 l306 0 24 26 c35 38 31 56 -14 49 -20
-4 -40 -11 -44 -18 -16 -26 -407 -15 -435 13 -4 5 -5 53 -3 193 0 11 0 63 0
115 1 52 2 124 4 160 2 53 -1 68 -16 83 -11 10 -19 28 -19 41 0 28 25 92 40
101 8 5 5 14 -7 27 -13 15 -15 22 -5 25 7 3 12 23 12 54 0 47 -1 49 -27 48
-16 0 -47 -9 -70 -20z"/>
<path d="M9225 2474 c-11 -3 -30 -7 -42 -10 -15 -3 -23 -12 -23 -25 0 -16 5
-20 19 -16 22 5 29 -30 37 -183 3 -52 10 -96 15 -98 11 -4 12 -32 2 -32 -5 0
-8 -74 -8 -165 0 -98 4 -165 10 -165 5 0 4 -5 -3 -12 -16 -16 -16 -95 1 -101
10 -4 10 -6 0 -6 -7 -1 -13 -7 -13 -14 0 -7 -16 -21 -35 -30 -19 -9 -35 -20
-35 -25 0 -8 199 -32 338 -39 89 -5 117 0 275 50 67 21 96 35 93 44 -4 9 3 13
21 13 18 0 41 16 78 53 45 47 53 61 59 105 7 53 -16 152 -35 152 -5 0 -9 9 -9
19 0 31 -158 161 -195 161 -8 0 -26 7 -39 15 -23 15 -110 42 -176 54 l-35 6
43 13 c24 7 46 20 49 28 3 8 11 14 19 14 23 0 74 79 74 116 0 31 -3 33 -62 54
-52 17 -92 22 -233 25 -93 2 -179 2 -190 -1z m269 -49 c67 -11 116 -37 116
-61 0 -60 -106 -122 -224 -131 l-76 -6 0 51 c0 28 -4 53 -8 56 -11 7 -2 73 12
85 22 18 92 20 180 6z m10 -271 c39 -9 97 -27 129 -40 32 -13 63 -24 68 -24
25 0 136 -84 170 -130 44 -59 55 -97 39 -144 -6 -18 -10 -38 -8 -42 4 -13 -48
-62 -101 -96 -53 -33 -181 -75 -262 -84 -39 -4 -81 -1 -135 11 l-79 18 -2 55
c-1 32 -7 59 -15 63 -10 7 -9 9 5 9 13 0 17 8 17 33 0 19 -2 36 -5 39 -10 9
-11 278 -1 278 4 0 5 12 2 27 -5 17 -3 29 6 34 21 14 94 10 172 -7z"/>
<path d="M3671 2434 c-26 -18 -40 -41 -57 -90 -13 -36 -30 -78 -37 -92 -41
-78 -92 -170 -109 -194 -10 -14 -18 -29 -18 -32 0 -16 -63 -93 -88 -107 -22
-13 -27 -23 -28 -55 0 -29 -12 -57 -50 -113 -27 -41 -54 -83 -60 -93 -6 -10
-21 -29 -34 -43 -27 -29 -19 -45 24 -45 40 0 92 40 83 64 -4 10 -1 19 7 22 7
3 24 28 37 57 13 29 26 54 29 57 4 3 16 22 29 43 26 42 3 38 256 40 91 0 157
-5 188 -14 41 -11 49 -11 57 0 6 10 12 2 21 -30 7 -24 21 -55 31 -68 10 -13
18 -33 18 -45 0 -11 10 -49 22 -84 l23 -63 35 6 c44 9 70 22 70 38 0 14 -32
81 -49 101 -6 7 -8 16 -4 19 3 4 1 13 -6 20 -17 21 -111 216 -111 231 0 7 -11
27 -25 46 -14 19 -25 40 -25 47 0 7 -12 38 -26 70 -32 72 -48 110 -62 146 -7
15 -19 27 -29 27 -13 0 -15 3 -5 8 10 7 9 23 -5 80 -16 67 -19 72 -42 71 -14
0 -41 -12 -60 -25z m43 -191 c15 -32 30 -65 35 -73 5 -8 21 -43 37 -77 15 -35
31 -63 36 -63 4 0 8 -8 8 -17 0 -10 12 -38 25 -62 14 -24 23 -46 21 -48 -16
-16 -395 2 -412 20 -5 5 32 73 73 137 13 19 23 42 23 51 0 9 6 19 14 22 12 5
53 71 90 144 6 13 14 23 17 23 4 0 18 -26 33 -57z"/>
<path d="M8902 2437 c-24 -16 -31 -27 -27 -42 3 -11 8 -47 12 -80 3 -33 11
-63 17 -67 7 -5 7 -8 -2 -8 -7 0 -10 -5 -6 -11 4 -6 8 -52 9 -103 2 -50 4 -93
5 -96 1 -3 1 -50 0 -104 -1 -99 -16 -145 -47 -146 -6 0 -20 -11 -31 -25 -11
-14 -24 -25 -30 -25 -6 0 -12 -4 -14 -9 -1 -4 -56 -34 -120 -65 -166 -81 -219
-87 -299 -31 -78 55 -115 226 -78 367 5 20 8 40 7 45 -3 11 32 116 43 128 14
14 11 65 -3 66 -7 0 -3 5 9 11 12 6 24 18 27 27 3 9 9 23 14 31 31 54 62 120
62 134 0 23 -52 21 -100 -4 -42 -21 -47 -29 -30 -46 7 -7 -3 -38 -31 -98 -22
-48 -43 -104 -46 -124 -3 -20 -11 -44 -19 -52 -18 -22 -29 -90 -14 -90 10 0
10 -3 1 -14 -14 -17 -21 -42 -31 -116 -14 -107 4 -210 39 -210 13 0 13 -2 3
-9 -12 -7 -11 -13 1 -37 21 -41 55 -70 108 -93 39 -18 54 -19 115 -11 111 14
184 35 184 52 0 5 6 8 13 8 11 0 135 67 226 121 18 11 35 18 37 16 2 -2 5 -42
5 -90 2 -100 4 -102 81 -60 35 19 47 31 43 42 -4 9 -9 31 -12 49 -3 18 -9 35
-13 37 -5 3 -6 23 -3 46 3 23 2 44 -4 48 -5 3 -7 34 -4 71 3 36 3 126 0 200
-7 133 -10 326 -6 365 3 29 -49 30 -91 2z"/>
<path d="M618 2413 c-31 -34 -68 -231 -68 -356 0 -60 23 -228 36 -261 3 -9 12
-16 20 -16 8 0 11 6 7 18 -4 9 12 -6 34 -33 80 -101 189 -176 318 -219 91 -31
111 -33 70 -7 -41 24 -84 76 -109 131 -38 85 -24 238 36 368 11 24 17 50 14
58 -3 8 -2 13 3 10 10 -7 24 22 16 34 -3 4 1 10 9 13 7 3 16 15 19 26 3 12 1
19 -4 15 -5 -3 -8 5 -6 18 2 18 -3 23 -25 23 -15 1 -24 -3 -22 -7 3 -4 -2 -5
-9 -2 -8 3 -17 14 -20 25 -3 11 -20 26 -39 34 -33 16 -69 36 -78 45 -19 19
-107 54 -136 53 -39 -1 -57 16 -25 24 12 3 21 9 21 14 0 13 -17 11 -26 -2 -5
-8 -8 -8 -13 0 -5 8 -12 6 -23 -6z"/>
<path d="M2441 1798 c-2 -48 -43 -140 -82 -183 -62 -68 -161 -113 -279 -129
l-45 -6 2 -192 c2 -147 0 -198 -11 -219 -18 -36 -2 -44 54 -24 271 96 412 304
397 587 -5 97 -35 232 -36 166z"/>
</g>
</svg>
